name C:\Users\u0101727\Documents\MyRepositories\upper-imu-dc\Results\main_tracking\Case_62\kinematics.mot
datacolumns 10
datarows 52
range 3.45000000 3.96000000
endheader 
time	clav_prot	clav_elev	scapula_abduction	scapula_elevation	scapula_upward_rot	scapula_winging	plane_elv	shoulder_elv	axial_rot	
          3.45000000	        -45.51297263	         15.11862502	        -16.03780402	          1.03643698	         67.46551388	        -15.73505618	         53.17824406	        106.21824800	          6.41714282	
          3.46000000	        -45.56832723	         15.24305958	        -16.25176857	          1.11063143	         67.37112477	        -15.79782892	         53.25313546	        106.31801211	          6.27394683	
          3.47000000	        -45.62204601	         15.36826415	        -16.46480926	          1.18541808	         67.27543078	        -15.85939543	         53.32710192	        106.41766126	          6.13092587	
          3.48000000	        -45.67423066	         15.49381697	        -16.67697146	          1.26051320	         67.17838076	        -15.91974782	         53.39973875	        106.51702263	          5.98794565	
          3.49000000	        -45.72498071	         15.61928207	        -16.88827672	          1.33562514	         67.07993472	        -15.97887857	         53.47065967	        106.61594004	          5.84486549	
          3.50000000	        -45.77439479	         15.74423052	        -17.09872893	          1.41046822	         66.98006947	        -16.03678450	         53.53950882	        106.71427874	          5.70155711	
          3.51000000	        -45.82257220	         15.86826197	        -17.30832174	          1.48477670	         66.87878369	        -16.09347074	         53.60597148	        106.81192979	          5.55792359	
          3.52000000	        -45.86961415	         15.99102476	        -17.51704595	          1.55831776	         66.77610208	        -16.14895398	         53.66978210	        106.90881365	          5.41391581	
          3.53000000	        -45.91562403	         16.11223271	        -17.72489531	          1.63090225	         66.67207847	        -16.20326441	         53.73072894	        107.00488302	          5.26954301	
          3.54000000	        -45.96070619	         16.23167717	        -17.93186923	          1.70239243	         66.56679751	        -16.25644575	         53.78865437	        107.10012440	          5.12487515	
          3.55000000	        -46.00496270	         16.34923356	        -18.13797176	          1.77270624	         66.46037465	        -16.30855306	         53.84345087	        107.19455805	          4.98003584	
          3.56000000	        -46.04848802	         16.46486230	        -18.34320636	          1.84181798	         66.35295425	        -16.35964823	         53.89505288	        107.28823584	          4.83518555	
          3.57000000	        -46.09136154	         16.57860472	        -18.54756719	          1.90975594	         66.24470553	        -16.40979339	         53.94342530	        107.38123681	          4.69049680	
          3.58000000	        -46.13363875	         16.69057469	        -18.75102775	          1.97659732	         66.13581652	        -16.45904273	         53.98855039	        107.47366024	          4.54612427	
          3.59000000	        -46.17534179	         16.80094714	        -18.95352870	          2.04246124	         66.02648647	        -16.50743369	         54.03041474	        107.56561685	          4.40217362	
          3.60000000	        -46.21645064	         16.90994409	        -19.15496619	          2.10750008	         65.91691705	        -16.55497825	         54.06899878	        107.65721859	          4.25867343	
          3.61000000	        -46.25689619	         17.01781922	        -19.35518258	          2.17188983	         65.80730338	        -16.60165552	         54.10427024	        107.74856817	          4.11555406	
          3.62000000	        -46.29655578	         17.12484237	        -19.55396051	          2.23582027	         65.69782536	        -16.64740619	         54.13618284	        107.83974909	          3.97263627	
          3.63000000	        -46.33525185	         17.23128568	        -19.75102141	          2.29948602	         65.58864011	        -16.69212949	         54.16467988	        107.93081719	          3.82963094	
          3.64000000	        -46.37275350	         17.33741236	        -19.94602826	          2.36307915	         65.47987585	        -16.73568263	         54.18970224	        108.02179394	          3.68614959	
          3.65000000	        -46.40878057	         17.44346851	        -20.13859205	          2.42678369	         65.37162757	        -16.77788260	         54.21119989	        108.11266228	          3.54172412	
          3.66000000	        -46.44300975	         17.54967810	        -20.32828108	          2.49077195	         65.26395440	        -16.81850979	         54.22914567	        108.20336475	          3.39583340	
          3.67000000	        -46.47508194	         17.65624111	        -20.51463217	          2.55520291	         65.15687886	        -16.85731303	         54.24354993	        108.29380396	          3.24793416	
          3.68000000	        -46.50461038	         17.76333439	        -20.69716293	          2.62022235	         65.05038742	        -16.89401564	         54.25447471	        108.38384503	          3.09749359	
          3.69000000	        -46.53118924	         17.87111455	        -20.87538460	          2.68596421	         64.94443228	        -16.92832198	         54.26204625	        108.47331945	          2.94402190	
          3.70000000	        -46.55440216	         17.97972168	        -21.04881490	          2.75255247	         64.83893356	        -16.95992427	         54.26646474	        108.56202962	          2.78710276	
          3.71000000	        -46.57383081	         18.08928267	        -21.21699019	          2.82010281	         64.73378192	        -16.98850937	         54.26801053	        108.64975387	          2.62642027	
          3.72000000	        -46.58906299	         18.19991399	        -21.37947649	          2.88872394	         64.62884145	        -17.01376531	         54.26704598	        108.73625172	          2.46178094	
          3.73000000	        -46.59970002	         18.31172448	        -21.53587888	          2.95851891	         64.52395298	        -17.03538725	         54.26401262	        108.82126942	          2.29312977	
          3.74000000	        -46.60536296	         18.42481851	        -21.68584892	          3.02958684	         64.41893811	        -17.05308276	         54.25942409	        108.90454592	          2.12055978	
          3.75000000	        -46.60569766	         18.53929941	        -21.82908955	          3.10202487	         64.31360405	        -17.06657613	         54.25385594	        108.98581923	          1.94431478	
          3.76000000	        -46.60037849	         18.65527247	        -21.96535724	          3.17592988	         64.20774932	        -17.07561171	         54.24793401	        109.06483312	          1.76478518	
          3.77000000	        -46.58911093	         18.77284654	        -22.09446122	          3.25139946	         64.10117008	        -17.07995624	         54.24232264	        109.14134362	          1.58249747	
          3.78000000	        -46.57163331	         18.89213393	        -22.21626018	          3.32853179	         63.99366689	        -17.07940030	         54.23771391	        109.21512504	          1.39809789	
          3.79000000	        -46.54771791	         19.01324762	        -22.33065684	          3.40742381	         63.88505143	        -17.07375908	         54.23481866	        109.28597525	          1.21233193	
          3.80000000	        -46.51717186	         19.13629564	        -22.43759076	          3.48816761	         63.77515293	        -17.06287278	         54.23435948	        109.35372007	          1.02602089	
          3.81000000	        -46.47983776	         19.26137373	        -22.53703013	          3.57084565	         63.66382433	        -17.04660677	         54.23706512	        109.41821656	          0.84003684	
          3.82000000	        -46.43559375	         19.38855804	        -22.62896305	          3.65552607	         63.55094782	        -17.02485135	         54.24366513	        109.47935568	          0.65527662	
          3.83000000	        -46.38435267	         19.51790045	        -22.71338905	          3.74225973	         63.43643982	        -16.99752131	         54.25488368	        109.53706373	          0.47263540	
          3.84000000	        -46.32606014	         19.64942839	        -22.79031209	          3.83108012	         63.32025483	        -16.96455490	         54.27143194	        109.59130238	          0.29298084	
          3.85000000	        -46.26069150	         19.78314942	        -22.85973576	          3.92200651	         63.20238773	        -16.92591252	         54.29399935	        109.64206649	          0.11712910	
          3.86000000	        -46.18824814	         19.91905962	        -22.92166123	          4.01504941	         63.08287406	        -16.88157498	         54.32324468	        109.68937960	         -0.05417567	
          3.87000000	        -46.10875343	         20.05715375	        -22.97608746	          4.11021725	         62.96178804	        -16.83154149	         54.35978758	        109.73328712	         -0.22027725	
          3.88000000	        -46.02224813	         20.19743470	        -23.02301263	          4.20752271	         62.83923845	        -16.77582701	         54.40420100	        109.77384789	         -0.38061874	
          3.89000000	        -45.92878535	         20.33992010	        -23.06243490	          4.30698707	         62.71536260	        -16.71445885	         54.45700452	        109.81112493	         -0.53475035	
          3.90000000	        -45.82842535	         20.48464463	        -23.09435226	          4.40864211	         62.59031881	        -16.64747277	         54.51865924	        109.84517554	         -0.68233410	
          3.91000000	        -45.72123120	         20.63165922	        -23.11876283	          4.51252981	         62.46427773	        -16.57490939	         54.58956537	        109.87604094	         -0.82314424	
          3.92000000	        -45.60726509	         20.78102893	        -23.13566653	          4.61870124	         62.33741269	        -16.49681100	         54.67006272	        109.90373550	         -0.95706253	
          3.93000000	        -45.48658467	         20.93283054	        -23.14506709	          4.72721541	         62.20988949	        -16.41321840	         54.76043281	        109.92823609	         -1.08407016	
          3.94000000	        -45.35923961	         21.08714855	        -23.14697335	          4.83813705	         62.08185633	        -16.32416773	         54.86090268	        109.94947187	         -1.20423966	
          3.95000000	        -45.22526941	         21.24406707	        -23.14139892	          4.95153176	         61.95343522	        -16.22968821	         54.97165090	        109.96731509	         -1.31772817	
          3.96000000	        -45.08470097	         21.40365586	        -23.12835719	          5.06745744	         61.82471432	        -16.12979962	         55.09281459	        109.98157627	         -1.42477162	
